<?xml version="1.0" encoding="utf-8"?>
<!-- Generator: Adobe Illustrator 19.1.0, SVG Export Plug-In . SVG Version: 6.00 Build 0)  -->
<svg version="1.1" id="Layer_1" xmlns="http://www.w3.org/2000/svg" xmlns:xlink="http://www.w3.org/1999/xlink" x="0px" y="0px"
	 viewBox="0 0 18.1 40" style="enable-background:new 0 0 18.1 40;" xml:space="preserve">
<style type="text/css">
	.st0{fill-rule:evenodd;clip-rule:evenodd;fill:#A9DE95;}
</style>
<g>
	<path class="st0" d="M11.8,7.5c2.2,0,3.1,1.8,3.5,2.9l2.7,9c0.5,1.9-1.9,2.7-2.5,0.9L13,11.9h-0.7l4.3,14.8h-3.9v11.5c0,2-3,2-3,0
		V26.6H8.5l0,11.6c0,2-3,2-3,0l0-11.5h-4l4.3-14.8H5.1l-2.5,8.3c-0.6,1.8-3.1,1.1-2.5-0.9l2.7-9c0.3-1,1.2-2.9,3.5-2.9H11.8z"/>
	<circle class="st0" cx="9.1" cy="3.6" r="3.2"/>
</g>
</svg>
