<?xml version="1.0" encoding="UTF-8" standalone="no"?>
<svg width="80px" height="448px" viewBox="0 0 80 448" version="1.1" xmlns="http://www.w3.org/2000/svg" xmlns:xlink="http://www.w3.org/1999/xlink" xmlns:sketch="http://www.bohemiancoding.com/sketch/ns">
    <!-- Generator: Sketch 3.4.1 (15681) - http://www.bohemiancoding.com/sketch -->
    <title>icons</title>
    <desc>Created with Sketch.</desc>
    <defs>
        <path id="path-1" d="M0,0.00676336327 L6.51232314,0.00676336327 L6.51232314,6.51018925 L0,6.51018925"></path>
        <path id="path-3" d="M0,0.00676336327 L6.51232314,0.00676336327 L6.51232314,6.51018925 L0,6.51018925"></path>
        <path id="path-5" d="M4.95454545,0.257272727 C3.66363636,0.93 -0.0563636364,2.99272727 0.713636364,4.03454545 L0.713636364,4.03454545 C1.48454545,5.07818182 4.19818182,1.62818182 5.09454545,0.432727273 L5.09454545,0.432727273 C5.15454545,0.35 5.09181818,0.243636364 5.00636364,0.243636364 L5.00636364,0.243636364 C4.98909091,0.243636364 4.97272727,0.248181818 4.95454545,0.257272727 L4.95454545,0.257272727 Z"></path>
        <path id="path-7" d="M0.195454545,2.27363636 C0.195454545,3.08272727 0.829090909,3.73818182 1.61,3.73818182 L1.61,3.73818182 C2.39181818,3.73818182 3.02545455,3.08272727 3.02545455,2.27363636 L3.02545455,2.27363636 C3.02545455,1.46545455 2.39181818,0.809090909 1.61,0.809090909 L1.61,0.809090909 C0.829090909,0.809090909 0.195454545,1.46545455 0.195454545,2.27363636 L0.195454545,2.27363636 Z"></path>
        <path id="path-9" d="M0,0.0113891439 L10.9664057,0.0113891439 L10.9664057,10.9628123 L0,10.9628123"></path>
        <path id="path-11" d="M0,0.0113891439 L10.9664057,0.0113891439 L10.9664057,10.9628123 L0,10.9628123"></path>
        <path id="path-13" d="M4.95454545,0.257272727 C3.66363636,0.93 -0.0563636364,2.99272727 0.713636364,4.03454545 L0.713636364,4.03454545 C1.48454545,5.07818182 4.19818182,1.62818182 5.09454545,0.432727273 L5.09454545,0.432727273 C5.15454545,0.35 5.09181818,0.243636364 5.00636364,0.243636364 L5.00636364,0.243636364 C4.98909091,0.243636364 4.97272727,0.248181818 4.95454545,0.257272727 L4.95454545,0.257272727 Z"></path>
        <path id="path-15" d="M0.195454545,2.27363636 C0.195454545,3.08272727 0.829090909,3.73818182 1.61,3.73818182 L1.61,3.73818182 C2.39181818,3.73818182 3.02545455,3.08272727 3.02545455,2.27363636 L3.02545455,2.27363636 C3.02545455,1.46545455 2.39181818,0.809090909 1.61,0.809090909 L1.61,0.809090909 C0.829090909,0.809090909 0.195454545,1.46545455 0.195454545,2.27363636 L0.195454545,2.27363636 Z"></path>
    </defs>
    <g id="Page-1" stroke="none" stroke-width="1" fill="none" fill-rule="evenodd" sketch:type="MSPage">
        <g id="icons" sketch:type="MSArtboardGroup">
            <g id="Icon---Edit-(Grey)" sketch:type="MSLayerGroup">
                <path d="M12.9805657,25.8383344 C19.867163,25.8383344 25.4498531,20.2556443 25.4498531,13.369047 C25.4498531,6.48244966 19.867163,0.899759504 12.9805657,0.899759504 C6.09396836,0.899759504 0.511278203,6.48244966 0.511278203,13.369047 C0.511278203,20.2556443 6.09396836,25.8383344 12.9805657,25.8383344 Z" id="more-info-icon" fill="#BDBEBF" sketch:type="MSShapeGroup"></path>
                <path d="M13.7030271,8.57795831 L8.24785888,8.57795831 L8.24785888,18.7045449 L18.0186585,18.7045449 L18.0186585,12.7459086" id="Path-547" stroke="#FFFFFF" stroke-linecap="round" stroke-linejoin="round" sketch:type="MSShapeGroup"></path>
                <g id="Pencil-Copy" transform="translate(13.133259, 6.933276)">
                    <path d="M4.23818383,0.945697216 C4.25431464,0.969640245 4.26505645,0.992606746 4.28189252,1.00947899 C4.69049732,1.41916881 5.09895744,1.82898523 5.50998547,2.23621565 C5.5551047,2.28093703 5.55490578,2.30294509 5.50993122,2.34761222 C5.13154455,2.72350331 4.75643107,3.10270375 4.37945494,3.48002347 C3.63396594,4.22618158 2.88733765,4.97121848 2.14331344,5.71884138 C2.09320306,5.76918685 2.06860902,5.76790289 2.01960176,5.71840737 C1.61253409,5.30716233 1.20298894,4.89839478 0.792467253,4.49060376 C0.75289977,4.45130754 0.746226826,4.43058344 0.790080184,4.38683858 C1.92080964,3.25878554 3.04983921,2.12903261 4.17924854,0.999659451 C4.19346245,0.985445538 4.20890607,0.972425159 4.23818383,0.945697216" id="Fill-1" fill="#FFFFFF" sketch:type="MSShapeGroup"></path>
                    <path d="M5.30142613,0.00676698004 C5.38070577,0.011902796 5.4521551,0.0385764881 5.51031279,0.0967341786 C5.81466414,0.401157861 6.12046219,0.704189087 6.42277006,1.01063816 C6.54268413,1.13219786 6.54185227,1.30867824 6.42215521,1.43184741 C6.24175063,1.6174963 6.05601132,1.79793705 5.87448554,1.982519 C5.841591,2.01595605 5.82258487,2.01604647 5.78932865,1.9826275 C5.37106707,1.56221395 4.95166622,1.14292159 4.53145158,0.724461093 C4.50132387,0.694459971 4.49864746,0.677858988 4.5307644,0.646320738 C4.71760683,0.462805737 4.90153776,0.276343066 5.08749408,0.0919057883 C5.1456156,0.0342725296 5.21867439,0.0093891396 5.30142613,0.00676698004" id="Fill-3" fill="#FFFFFF" sketch:type="MSShapeGroup"></path>
                    <g id="Group-7">
                        <mask id="mask-2" sketch:name="Clip 6" fill="white">
                            <use xlink:href="#path-1"></use>
                        </mask>
                        <g id="Clip-6"></g>
                        <path d="M1.80479806,6.02663228 C1.21926079,6.18350976 0.617158707,6.34483586 -7.23354356e-06,6.51019467 C0.167232295,5.89706143 0.331053973,5.29651456 0.490408939,4.71227932 C0.925470419,5.1473408 1.36604748,5.58788169 1.80479806,6.02663228" id="Fill-5" fill="#FFFFFF" sketch:type="MSShapeGroup" mask="url(#mask-2)"></path>
                    </g>
                </g>
            </g>
            <g id="Icon---Edit-Hover-(Grey)" sketch:type="MSLayerGroup" transform="translate(26.000000, 0.000000)">
                <path d="M12.9805657,25.8383344 C19.867163,25.8383344 25.4498531,20.2556443 25.4498531,13.369047 C25.4498531,6.48244966 19.867163,0.899759504 12.9805657,0.899759504 C6.09396836,0.899759504 0.511278203,6.48244966 0.511278203,13.369047 C0.511278203,20.2556443 6.09396836,25.8383344 12.9805657,25.8383344 Z" id="more-info-icon" fill="#78797C" sketch:type="MSShapeGroup"></path>
                <path d="M13.7030271,8.57795831 L8.24785888,8.57795831 L8.24785888,18.7045449 L18.0186585,18.7045449 L18.0186585,12.7459086" id="Path-547" stroke="#FFFFFF" stroke-linecap="round" stroke-linejoin="round" sketch:type="MSShapeGroup"></path>
                <g id="Pencil-Copy" transform="translate(13.133259, 6.933276)">
                    <path d="M4.23818383,0.945697216 C4.25431464,0.969640245 4.26505645,0.992606746 4.28189252,1.00947899 C4.69049732,1.41916881 5.09895744,1.82898523 5.50998547,2.23621565 C5.5551047,2.28093703 5.55490578,2.30294509 5.50993122,2.34761222 C5.13154455,2.72350331 4.75643107,3.10270375 4.37945494,3.48002347 C3.63396594,4.22618158 2.88733765,4.97121848 2.14331344,5.71884138 C2.09320306,5.76918685 2.06860902,5.76790289 2.01960176,5.71840737 C1.61253409,5.30716233 1.20298894,4.89839478 0.792467253,4.49060376 C0.75289977,4.45130754 0.746226826,4.43058344 0.790080184,4.38683858 C1.92080964,3.25878554 3.04983921,2.12903261 4.17924854,0.999659451 C4.19346245,0.985445538 4.20890607,0.972425159 4.23818383,0.945697216" id="Fill-1" fill="#FFFFFF" sketch:type="MSShapeGroup"></path>
                    <path d="M5.30142613,0.00676698004 C5.38070577,0.011902796 5.4521551,0.0385764881 5.51031279,0.0967341786 C5.81466414,0.401157861 6.12046219,0.704189087 6.42277006,1.01063816 C6.54268413,1.13219786 6.54185227,1.30867824 6.42215521,1.43184741 C6.24175063,1.6174963 6.05601132,1.79793705 5.87448554,1.982519 C5.841591,2.01595605 5.82258487,2.01604647 5.78932865,1.9826275 C5.37106707,1.56221395 4.95166622,1.14292159 4.53145158,0.724461093 C4.50132387,0.694459971 4.49864746,0.677858988 4.5307644,0.646320738 C4.71760683,0.462805737 4.90153776,0.276343066 5.08749408,0.0919057883 C5.1456156,0.0342725296 5.21867439,0.0093891396 5.30142613,0.00676698004" id="Fill-3" fill="#FFFFFF" sketch:type="MSShapeGroup"></path>
                    <g id="Group-7">
                        <mask id="mask-4" sketch:name="Clip 6" fill="white">
                            <use xlink:href="#path-3"></use>
                        </mask>
                        <g id="Clip-6"></g>
                        <path d="M1.80479806,6.02663228 C1.21926079,6.18350976 0.617158707,6.34483586 -7.23354356e-06,6.51019467 C0.167232295,5.89706143 0.331053973,5.29651456 0.490408939,4.71227932 C0.925470419,5.1473408 1.36604748,5.58788169 1.80479806,6.02663228" id="Fill-5" fill="#FFFFFF" sketch:type="MSShapeGroup" mask="url(#mask-4)"></path>
                    </g>
                </g>
            </g>
            <g id="Icon---Info-Hover-(Grey)" sketch:type="MSLayerGroup" transform="translate(27.000000, 28.000000)">
                <ellipse id="more-info-icon" fill="#78797C" sketch:type="MSShapeGroup" cx="12.4692875" cy="12.4692875" rx="12.4692875" ry="12.4692875"></ellipse>
                <text id="i" sketch:type="MSTextLayer" font-family="Open Sans" font-size="15.960688" font-weight="526" fill="#FFFFFF">
                    <tspan x="10" y="18">i</tspan>
                </text>
            </g>
            <g id="Icon---Info-Hover-(Grey)" sketch:type="MSLayerGroup" transform="translate(1.000000, 28.000000)">
                <ellipse id="more-info-icon" fill="#BDBEBF" sketch:type="MSShapeGroup" cx="12.4692875" cy="12.4692875" rx="12.4692875" ry="12.4692875"></ellipse>
                <text id="i" sketch:type="MSTextLayer" font-family="Open Sans" font-size="15.960688" font-weight="526" fill="#FFFFFF">
                    <tspan x="10" y="18">i</tspan>
                </text>
            </g>
            <g id="Icon---Monitors-Hover-(Dark)" sketch:type="MSLayerGroup" transform="translate(29.000000, 55.000000)">
                <path d="M21.2424429,19.6468253 L10.7424429,25.8898738 L0.25,19.6334783 L0.257557064,7.13403445 L10.7564775,0.889873755 L21.25,7.14626918 L21.2424429,19.6468253 L21.2424429,19.6468253 Z" id="hexagon-copy" stroke="#00C6C5" sketch:type="MSShapeGroup"></path>
                <g id="Group" transform="translate(5.110271, 8.389874)" sketch:type="MSShapeGroup">
                    <path d="M5.3968126,8.48114299 L3.8405343,9.95944547 L7.92427834,9.95944544 L6.45246301,8.48114299 C6.45246301,8.48114299 5.3968126,8.48114299 5.3968126,8.48114299 Z" id="Path-394" stroke="#00C6C5" stroke-width="0.5" stroke-linecap="round" stroke-linejoin="round" fill="#00C6C5"></path>
                    <path d="M0.384475524,0.568939394 L11.0526224,0.568939394 L11.0526224,8.45227273 L0.384475524,8.45227273 L0.384475524,0.568939394 Z" id="Stroke-7" stroke="#00C6C5" stroke-width="0.75" stroke-linecap="round" stroke-linejoin="round"></path>
                    <rect id="Rectangle-14" fill="#00C6C5" x="3.63636364" y="4.54545455" width="0.909090909" height="2.72727273"></rect>
                    <rect id="Rectangle-14-Copy" fill="#00C6C5" x="5.45454545" y="3.63636364" width="0.909090909" height="3.63636364"></rect>
                    <rect id="Rectangle-14-Copy-2" fill="#00C6C5" x="7.27272727" y="2.72727273" width="0.909090909" height="4.54545455"></rect>
                </g>
            </g>
            <g id="Icon---Monitors-(Dark)" sketch:type="MSLayerGroup" transform="translate(4.000000, 55.000000)">
                <path d="M21.2424429,19.6468253 L10.7424429,25.8898738 L0.25,19.6334783 L0.257557064,7.13403445 L10.7564775,0.889873755 L21.25,7.14626918 L21.2424429,19.6468253 L21.2424429,19.6468253 Z" id="hexagon-copy" fill="#BEBEBE" sketch:type="MSShapeGroup"></path>
                <g id="Group" transform="translate(5.110271, 8.389874)" sketch:type="MSShapeGroup">
                    <path d="M5.3968126,8.48114299 L3.8405343,9.95944547 L7.92427834,9.95944544 L6.45246301,8.48114299 C6.45246301,8.48114299 5.3968126,8.48114299 5.3968126,8.48114299 Z" id="Path-394" stroke="#FFFFFF" stroke-width="0.5" stroke-linecap="round" stroke-linejoin="round" fill="#FFFFFF"></path>
                    <path d="M0.384475524,0.568939394 L11.0526224,0.568939394 L11.0526224,8.45227273 L0.384475524,8.45227273 L0.384475524,0.568939394 Z" id="Stroke-7" stroke="#FFFFFF" stroke-width="0.75" stroke-linecap="round" stroke-linejoin="round"></path>
                    <rect id="Rectangle-14" fill="#FFFFFF" x="3.63636364" y="4.54545455" width="0.909090909" height="2.72727273"></rect>
                    <rect id="Rectangle-14-Copy" fill="#FFFFFF" x="5.45454545" y="3.63636364" width="0.909090909" height="3.63636364"></rect>
                    <rect id="Rectangle-14-Copy-2" fill="#FFFFFF" x="7.27272727" y="2.72727273" width="0.909090909" height="4.54545455"></rect>
                </g>
            </g>
            <g id="Icon---Reports-(Dark)-Copy" sketch:type="MSLayerGroup" transform="translate(29.000000, 81.000000)">
                <path d="M21.2062673,19.5899882 L10.7072079,25.8332053 L0.21379152,19.5773913 L0.221315704,7.07739131 L10.7213157,0.833205264 L21.2137915,7.08998821 L21.2062673,19.5899882 L21.2062673,19.5899882 Z" id="hexagon" stroke="#01C6C5" sketch:type="MSShapeGroup"></path>
                <g id="Page-1" transform="translate(7.278506, 8.333205)" sketch:type="MSShapeGroup">
                    <g id="Group-5" stroke="#01C6C5" stroke-width="0.75" stroke-linecap="round" stroke-linejoin="round">
                        <path d="M7.46827115,9.12835925 L0.0397052935,9.12835925 L0.0397052935,0.00446623586 L5.28277302,0.00446623586 L5.28166149,2.1624417 L7.46827115,2.16377374 L7.46827115,9.12835925 L7.46827115,9.12835925 Z" id="Stroke-1"></path>
                        <path d="M5.28276508,0.00446623586 L7.46953352,2.16259841" id="Stroke-3"></path>
                    </g>
                    <path d="M2.59366632,6.20195615 L1.86442593,6.20195615 L1.86442593,4.56637357 L2.59366632,4.56637357 L2.59366632,6.20195615 Z" id="Fill-6" fill="#01C6C5"></path>
                    <path d="M4.0538144,6.20195615 L3.324574,6.20195615 L3.324574,3.81361694 L4.0538144,3.81361694 L4.0538144,6.20195615 Z" id="Fill-7" fill="#01C6C5"></path>
                    <path d="M5.42234098,6.20195615 L4.69310058,6.20195615 L4.69310058,3.12707029 L5.42234098,3.12707029 L5.42234098,6.20195615 Z" id="Fill-8" fill="#01C6C5"></path>
                </g>
            </g>
            <g id="Icon---Segments-Hover" sketch:type="MSLayerGroup" transform="translate(29.000000, 108.000000)">
                <path d="M20.9924429,19.0674701 L10.4924429,25.3105186 L0,19.0541231 L0.00755706354,6.55467927 L10.5064775,0.310518572 L21,6.566914 L20.9924429,19.0674701 L20.9924429,19.0674701 Z" id="hexagon-copy-2" stroke="#01C6C5" sketch:type="MSShapeGroup"></path>
                <g id="Segments" transform="translate(5.886410, 8.091065)" fill="#01C6C5" sketch:type="MSShapeGroup">
                    <path d="M5.28044235,0.128253504 L5.28044235,4.10397181 L9.25625838,4.10397181 C9.25625838,1.90831212 7.47629748,0.128253504 5.28044235,0.128253504 L5.28044235,0.128253504 Z M4.25336166,1.13899947 C2.05750653,1.13899947 0.277545634,2.91905809 0.277545634,5.11471778 C0.277545634,7.31037747 2.05750653,9.09063152 4.25336166,9.09063152 C6.44921679,9.09063152 8.22917769,7.31037747 8.22917769,5.11471778 L4.25336166,5.11471778 L4.25336166,1.13899947 L4.25336166,1.13899947 Z" id="Shape"></path>
                </g>
            </g>
            <g id="Icon---Dashboard-Hover" sketch:type="MSLayerGroup" transform="translate(29.000000, 135.000000)">
                <path d="M11.0678429,25.2271739 L0.5754,18.9707785 L0.582957064,6.47133461 L11.0818775,0.227173913 L21.5754,6.48356934 L21.5678429,18.9841255 L11.0678429,25.2271739 Z" id="hexagon" stroke="#01C6C5" sketch:type="MSShapeGroup"></path>
                <g id="Page-1" transform="translate(3.802673, 7.727174)">
                    <g id="Group-3" transform="translate(5.454545, 3.636364)">
                        <mask id="mask-6" sketch:name="Clip 2" fill="white">
                            <use xlink:href="#path-5"></use>
                        </mask>
                        <g id="Clip-2"></g>
                        <path d="M-3.93545455,-4.30181818 L9.66454545,-4.30181818 L9.66454545,8.77363636 L-3.93545455,8.77363636 L-3.93545455,-4.30181818 Z" id="Fill-1" fill="#01C6C5" sketch:type="MSShapeGroup" mask="url(#mask-6)"></path>
                    </g>
                    <g id="Group-6" transform="translate(5.454545, 4.545455)">
                        <mask id="mask-8" sketch:name="Clip 5" fill="white">
                            <use xlink:href="#path-7"></use>
                        </mask>
                        <g id="Clip-5"></g>
                        <path d="M-4.35,-3.73636364 L7.57090909,-3.73636364 L7.57090909,8.28363636 L-4.35,8.28363636 L-4.35,-3.73636364 Z" id="Fill-4" fill="#01C6C5" sketch:type="MSShapeGroup" mask="url(#mask-8)"></path>
                    </g>
                    <path d="M0.257272727,6.72645455 C0.257272727,3.25736364 3.30727273,0.372818182 7.06454545,0.372818182 C10.8227273,0.372818182 13.8727273,3.07827273 13.8727273,6.71463636 L9.71909091,6.71463636 L9.71909091,6.71827273 C9.71909091,8.18372727 8.53090909,9.37281818 7.06454545,9.37281818 C5.59909091,9.37281818 4.41,8.18372727 4.41,6.71827273 L0.257272727,6.72645455 L0.257272727,6.72645455 Z" id="Stroke-7" stroke="#01C6C5" stroke-width="0.75" stroke-linecap="round" stroke-linejoin="round" sketch:type="MSShapeGroup"></path>
                </g>
            </g>
            <g id="Icon---Add-(Grey)" sketch:type="MSLayerGroup" transform="translate(9.000000, 164.000000)" stroke="#78797C" fill="#78797C" stroke-linecap="round" stroke-linejoin="round">
                <path d="M4.87301951,0.3541791 L4.87301951,8.85447751" id="Line" sketch:type="MSShapeGroup"></path>
                <path d="M0.363658173,4.6043283 L9.09145432,4.6043283" id="Line" sketch:type="MSShapeGroup"></path>
            </g>
            <g id="Icon---Add-Hover-(Grey)" sketch:type="MSLayerGroup" transform="translate(35.000000, 164.000000)" stroke="#FFFFFF" fill="#FFFFFF" stroke-linecap="round" stroke-linejoin="round">
                <path d="M5.15384615,0.384615385 L5.15384615,9.61538462" id="Line" sketch:type="MSShapeGroup"></path>
                <path d="M0.384615385,5 L9.61538462,5" id="Line" sketch:type="MSShapeGroup"></path>
            </g>
            <g id="Icon---Trash-(Grey)" sketch:type="MSLayerGroup" transform="translate(8.000000, 178.000000)" fill="#BDBEBF">
                <path d="M2.47498521,7.52390705 C2.47498521,8.22069565 2.47470242,8.91748426 2.47510641,9.61427286 C2.4753084,9.88623372 2.65811037,10.0781657 2.91294238,10.0759034 C3.16409815,10.0736411 3.3429007,9.88380983 3.3429411,9.61661596 C3.34330468,8.2263918 3.34314309,6.83616764 3.3430219,5.44594348 C3.3430219,5.38538654 3.33946685,5.32579916 3.31749022,5.26762571 C3.24117797,5.06563458 3.0401564,4.95227716 2.82459146,4.99198862 C2.61617701,5.03036693 2.47587397,5.20032227 2.47546999,5.42340127 C2.47417725,6.12358333 2.47498521,6.82372499 2.47498521,7.52390705 M4.94590232,7.52390705 L4.94590232,8.90633435 C4.94590232,9.15187477 4.94359962,9.39741519 4.94666989,9.6429556 C4.94921497,9.84939054 5.07420709,10.0095291 5.26343238,10.0590169 C5.56044014,10.1367431 5.81709007,9.9346308 5.81741325,9.62004981 C5.81822122,8.7320564 5.81769604,7.84410339 5.81769604,6.95610998 C5.81769604,6.44818308 5.81805963,5.94029658 5.81749405,5.43241008 C5.81729206,5.25231479 5.74166658,5.11245613 5.57918491,5.03153848 C5.27700618,4.88109548 4.94804343,5.0902775 4.94671028,5.43511676 C4.944044,6.13133979 4.94590232,6.82764362 4.94590232,7.52390705 M7.41690022,7.53481457 C7.41690022,8.23451185 7.41601146,8.93420912 7.417385,9.633866 C7.41782938,9.86914527 7.57388773,10.0431404 7.80520798,10.0742067 C8.00877464,10.1015563 8.20991741,9.97014084 8.27023196,9.76875568 C8.29265297,9.69389777 8.29176421,9.61613118 8.29176421,9.53888977 C8.2919662,8.19669911 8.2919662,6.85450844 8.29156222,5.51235817 C8.29156222,5.46210277 8.29030988,5.411403 8.28364417,5.36171318 C8.26001121,5.18569811 8.16414622,5.06393786 7.99524123,5.00911746 C7.69488042,4.91171734 7.41799098,5.11645555 7.41734461,5.43576313 C7.41589027,6.13546041 7.41690022,6.83515769 7.41690022,7.53481457 M5.37844613,3.38321005 C6.8459117,3.38321005 8.31341766,3.38422001 9.78088323,3.38082656 C9.8727084,3.38062457 9.89007963,3.40595425 9.88999884,3.49260845 C9.88761534,6.01693201 9.88818092,8.54125558 9.88793853,11.0655791 C9.88789813,11.4264565 9.6402974,11.6748652 9.2803896,11.6749056 C6.68536914,11.675148 4.09038908,11.6751076 1.49536862,11.674946 C1.11736242,11.674946 0.872306779,11.4284764 0.872306779,11.0483291 C0.872104788,8.52735859 0.872629965,6.00638808 0.870286868,3.48545796 C0.870206072,3.40074288 0.892950273,3.38110934 0.976009026,3.38127094 C2.44347459,3.38393722 3.91098056,3.38321005 5.37844613,3.38321005" id="Fill-1" sketch:type="MSShapeGroup"></path>
                <path d="M5.37881779,2.51498753 C3.76006087,2.51498753 2.14130394,2.51494714 0.522547016,2.51506833 C0.38967725,2.51506833 0.259716157,2.50513037 0.153388025,2.41148728 C0.0518672827,2.32204561 0.000480738892,2.20945575 0.000359544214,2.0739601 C0.000197951309,1.83839804 -0.000408022085,1.60283598 0.000480738892,1.36723353 C0.001571491,1.09288917 0.181585987,0.912511094 0.456091934,0.9123899 C1.67102819,0.911864723 2.88592405,0.910895165 4.1008199,0.914571404 C4.19785644,0.91489459 4.2215702,0.892271583 4.22128742,0.79462907 C4.21987348,0.349884998 4.53340411,0.0408789651 4.97584548,0.04031339 C5.24845272,0.0399498059 5.52101955,0.0397478148 5.79362678,0.0403537882 C6.22835209,0.0413637438 6.5470133,0.356308316 6.54200392,0.791397212 C6.54083237,0.894533884 6.56789918,0.914934988 6.66719802,0.914611802 C7.87199432,0.910814369 9.07679062,0.91214751 10.2815869,0.912187908 C10.5886538,0.912187908 10.7630126,1.08614267 10.763255,1.39268441 C10.7634166,1.61144081 10.7636994,1.8301972 10.7631742,2.0489536 C10.7625682,2.317723 10.6110749,2.48497165 10.3457797,2.50953377 C10.3023516,2.5135736 10.2585195,2.51478554 10.2148895,2.51478554 C8.60283863,2.51502793 6.99082821,2.51498753 5.37881779,2.51498753" id="Fill-3" sketch:type="MSShapeGroup"></path>
            </g>
            <g id="Icon---Trash-Hover-(Grey)" sketch:type="MSLayerGroup" transform="translate(35.000000, 178.000000)" fill="#78797C">
                <path d="M2.47498521,7.52390705 C2.47498521,8.22069565 2.47470242,8.91748426 2.47510641,9.61427286 C2.4753084,9.88623372 2.65811037,10.0781657 2.91294238,10.0759034 C3.16409815,10.0736411 3.3429007,9.88380983 3.3429411,9.61661596 C3.34330468,8.2263918 3.34314309,6.83616764 3.3430219,5.44594348 C3.3430219,5.38538654 3.33946685,5.32579916 3.31749022,5.26762571 C3.24117797,5.06563458 3.0401564,4.95227716 2.82459146,4.99198862 C2.61617701,5.03036693 2.47587397,5.20032227 2.47546999,5.42340127 C2.47417725,6.12358333 2.47498521,6.82372499 2.47498521,7.52390705 M4.94590232,7.52390705 L4.94590232,8.90633435 C4.94590232,9.15187477 4.94359962,9.39741519 4.94666989,9.6429556 C4.94921497,9.84939054 5.07420709,10.0095291 5.26343238,10.0590169 C5.56044014,10.1367431 5.81709007,9.9346308 5.81741325,9.62004981 C5.81822122,8.7320564 5.81769604,7.84410339 5.81769604,6.95610998 C5.81769604,6.44818308 5.81805963,5.94029658 5.81749405,5.43241008 C5.81729206,5.25231479 5.74166658,5.11245613 5.57918491,5.03153848 C5.27700618,4.88109548 4.94804343,5.0902775 4.94671028,5.43511676 C4.944044,6.13133979 4.94590232,6.82764362 4.94590232,7.52390705 M7.41690022,7.53481457 C7.41690022,8.23451185 7.41601146,8.93420912 7.417385,9.633866 C7.41782938,9.86914527 7.57388773,10.0431404 7.80520798,10.0742067 C8.00877464,10.1015563 8.20991741,9.97014084 8.27023196,9.76875568 C8.29265297,9.69389777 8.29176421,9.61613118 8.29176421,9.53888977 C8.2919662,8.19669911 8.2919662,6.85450844 8.29156222,5.51235817 C8.29156222,5.46210277 8.29030988,5.411403 8.28364417,5.36171318 C8.26001121,5.18569811 8.16414622,5.06393786 7.99524123,5.00911746 C7.69488042,4.91171734 7.41799098,5.11645555 7.41734461,5.43576313 C7.41589027,6.13546041 7.41690022,6.83515769 7.41690022,7.53481457 M5.37844613,3.38321005 C6.8459117,3.38321005 8.31341766,3.38422001 9.78088323,3.38082656 C9.8727084,3.38062457 9.89007963,3.40595425 9.88999884,3.49260845 C9.88761534,6.01693201 9.88818092,8.54125558 9.88793853,11.0655791 C9.88789813,11.4264565 9.6402974,11.6748652 9.2803896,11.6749056 C6.68536914,11.675148 4.09038908,11.6751076 1.49536862,11.674946 C1.11736242,11.674946 0.872306779,11.4284764 0.872306779,11.0483291 C0.872104788,8.52735859 0.872629965,6.00638808 0.870286868,3.48545796 C0.870206072,3.40074288 0.892950273,3.38110934 0.976009026,3.38127094 C2.44347459,3.38393722 3.91098056,3.38321005 5.37844613,3.38321005" id="Fill-1" sketch:type="MSShapeGroup"></path>
                <path d="M5.37881779,2.51498753 C3.76006087,2.51498753 2.14130394,2.51494714 0.522547016,2.51506833 C0.38967725,2.51506833 0.259716157,2.50513037 0.153388025,2.41148728 C0.0518672827,2.32204561 0.000480738892,2.20945575 0.000359544213,2.0739601 C0.000197951308,1.83839804 -0.000408022085,1.60283598 0.000480738892,1.36723353 C0.001571491,1.09288917 0.181585987,0.912511094 0.456091934,0.9123899 C1.67102819,0.911864723 2.88592405,0.910895165 4.1008199,0.914571404 C4.19785644,0.91489459 4.2215702,0.892271583 4.22128742,0.79462907 C4.21987348,0.349884998 4.53340411,0.0408789651 4.97584548,0.04031339 C5.24845272,0.0399498059 5.52101955,0.0397478148 5.79362678,0.0403537882 C6.22835209,0.0413637438 6.5470133,0.356308316 6.54200392,0.791397212 C6.54083237,0.894533884 6.56789918,0.914934988 6.66719802,0.914611802 C7.87199432,0.910814369 9.07679062,0.91214751 10.2815869,0.912187908 C10.5886538,0.912187908 10.7630126,1.08614267 10.763255,1.39268441 C10.7634166,1.61144081 10.7636994,1.8301972 10.7631742,2.0489536 C10.7625682,2.317723 10.6110749,2.48497165 10.3457797,2.50953377 C10.3023516,2.5135736 10.2585195,2.51478554 10.2148895,2.51478554 C8.60283863,2.51502793 6.99082821,2.51498753 5.37881779,2.51498753" id="Fill-3" sketch:type="MSShapeGroup"></path>
            </g>
            <g id="Icon---Edit-Tag-(Grey)" sketch:type="MSLayerGroup" transform="translate(8.000000, 195.000000)">
                <path d="M7.1368761,1.5925038 C7.16403952,1.63282259 7.18212816,1.67149695 7.21047921,1.69990891 C7.89854794,2.38980478 8.58637306,3.07991382 9.2785224,3.76566818 C9.35450078,3.84097661 9.3541658,3.87803701 9.27843104,3.95325408 C8.64124803,4.58623469 8.00957687,5.22478805 7.37476913,5.86017438 C6.11940531,7.11666494 4.86212299,8.37126746 3.6092258,9.63022464 C3.5248426,9.71500373 3.48342753,9.71284162 3.40090192,9.62949379 C2.71542162,8.93697903 2.02576937,8.24863622 1.33447269,7.56193783 C1.26784316,7.49576508 1.25660627,7.4608668 1.330453,7.38720279 C3.23454124,5.48762148 5.13576697,3.58517766 7.0376322,1.68337333 C7.06156767,1.65943786 7.0875739,1.63751223 7.1368761,1.5925038" id="Fill-1" fill="#BDBEBF" sketch:type="MSShapeGroup"></path>
                <path d="M8.92731957,0.0113952344 C9.06082226,0.0200436752 9.18113913,0.0649607536 9.27907358,0.162895211 C9.79158506,0.675528497 10.3065327,1.18581696 10.8156031,1.7018609 C11.017532,1.90656097 11.0161312,2.20374454 10.8145677,2.41115486 C10.510776,2.72377772 10.1980009,3.02763034 9.89232113,3.33845652 C9.83692847,3.39476274 9.80492315,3.394915 9.74892145,3.33863923 C9.04459121,2.63068517 8.33834248,1.92461915 7.63072339,1.21995394 C7.57998993,1.16943365 7.575483,1.14147847 7.62956621,1.08836974 C7.94419892,0.779340239 8.25392882,0.465347022 8.56706938,0.154764458 C8.66494293,0.0577131165 8.78797004,0.0158108116 8.92731957,0.0113952344" id="Fill-3" fill="#BDBEBF" sketch:type="MSShapeGroup"></path>
                <g id="Group-7">
                    <mask id="mask-10" sketch:name="Clip 6" fill="white">
                        <use xlink:href="#path-9"></use>
                    </mask>
                    <g id="Clip-6"></g>
                    <path d="M3.03918392,10.1485281 C2.05317031,10.4127015 1.03926243,10.684366 -1.21809026e-05,10.9628215 C0.281610287,9.93033772 0.557477279,8.91904874 0.825822563,7.93522769 C1.55844295,8.66784807 2.30035128,9.40969549 3.03918392,10.1485281" id="Fill-5" fill="#BDBEBF" sketch:type="MSShapeGroup" mask="url(#mask-10)"></path>
                </g>
            </g>
            <g id="Icon---Edit-Tag-Hover-(Grey)" sketch:type="MSLayerGroup" transform="translate(34.000000, 195.000000)">
                <path d="M7.1368761,1.5925038 C7.16403952,1.63282259 7.18212816,1.67149695 7.21047921,1.69990891 C7.89854794,2.38980478 8.58637306,3.07991382 9.2785224,3.76566818 C9.35450078,3.84097661 9.3541658,3.87803701 9.27843104,3.95325408 C8.64124803,4.58623469 8.00957687,5.22478805 7.37476913,5.86017438 C6.11940531,7.11666494 4.86212299,8.37126746 3.6092258,9.63022464 C3.5248426,9.71500373 3.48342753,9.71284162 3.40090192,9.62949379 C2.71542162,8.93697903 2.02576937,8.24863622 1.33447269,7.56193783 C1.26784316,7.49576508 1.25660627,7.4608668 1.330453,7.38720279 C3.23454124,5.48762148 5.13576697,3.58517766 7.0376322,1.68337333 C7.06156767,1.65943786 7.0875739,1.63751223 7.1368761,1.5925038" id="Fill-1" fill="#78797C" sketch:type="MSShapeGroup"></path>
                <path d="M8.92731957,0.0113952344 C9.06082226,0.0200436752 9.18113913,0.0649607536 9.27907358,0.162895211 C9.79158506,0.675528497 10.3065327,1.18581696 10.8156031,1.7018609 C11.017532,1.90656097 11.0161312,2.20374454 10.8145677,2.41115486 C10.510776,2.72377772 10.1980009,3.02763034 9.89232113,3.33845652 C9.83692847,3.39476274 9.80492315,3.394915 9.74892145,3.33863923 C9.04459121,2.63068517 8.33834248,1.92461915 7.63072339,1.21995394 C7.57998993,1.16943365 7.575483,1.14147847 7.62956621,1.08836974 C7.94419892,0.779340239 8.25392882,0.465347022 8.56706938,0.154764458 C8.66494293,0.0577131165 8.78797004,0.0158108116 8.92731957,0.0113952344" id="Fill-3" fill="#78797C" sketch:type="MSShapeGroup"></path>
                <g id="Group-7">
                    <mask id="mask-12" sketch:name="Clip 6" fill="white">
                        <use xlink:href="#path-11"></use>
                    </mask>
                    <g id="Clip-6"></g>
                    <path d="M3.03918392,10.1485281 C2.05317031,10.4127015 1.03926243,10.684366 -1.21809026e-05,10.9628215 C0.281610287,9.93033772 0.557477279,8.91904874 0.825822563,7.93522769 C1.55844295,8.66784807 2.30035128,9.40969549 3.03918392,10.1485281" id="Fill-5" fill="#78797C" sketch:type="MSShapeGroup" mask="url(#mask-12)"></path>
                </g>
            </g>
            <g id="Icon---Folder-(Grey)" sketch:type="MSLayerGroup" transform="translate(7.000000, 213.000000)" stroke="#BDBEBF" stroke-linecap="round" stroke-linejoin="round">
                <path d="M8.12222222,1.75 L5.66855556,0 L1.59384444,0 C0.717211111,0 0,0.738888889 0,1.64188889 L0,12.3579167 C0,13.2609167 0.717211111,14 1.59384444,14 L15.4063444,14 C16.2827889,14 17,13.2609167 17,12.3579167 L17,3.30555556 C17,2.40255556 16.2827889,1.75 15.4061556,1.75 L8.12222222,1.75 Z" id="Icon---Folder-(Grey)-Hover" sketch:type="MSShapeGroup"></path>
            </g>
            <g id="Icon---Folder-(Grey)-Hover" sketch:type="MSLayerGroup" transform="translate(31.000000, 213.000000)" stroke-linecap="round" stroke="#78797C" stroke-linejoin="round">
                <path d="M8.12222222,1.75 L5.66855556,0 L1.59384444,0 C0.717211111,0 0,0.738888889 0,1.64188889 L0,12.3579167 C0,13.2609167 0.717211111,14 1.59384444,14 L15.4063444,14 C16.2827889,14 17,13.2609167 17,12.3579167 L17,3.30555556 C17,2.40255556 16.2827889,1.75 15.4061556,1.75 L8.12222222,1.75 Z" sketch:type="MSShapeGroup"></path>
            </g>
            <g id="Icon---Report-(Grey)" sketch:type="MSLayerGroup" transform="translate(7.000000, 234.000000)">
                <g id="Group" transform="translate(0.103521, -0.000000)" sketch:type="MSShapeGroup">
                    <path id="Shape" fill="#000000" d="M11.4666667,0.0444444444 C11.4916667,0.0777777778 11.5416667,0.111111111 11.5666667,0.144444444 C11.5416667,0.111111111 11.5166667,0.0444444444 11.4666667,0.0444444444 L11.4666667,0.0444444444 Z"></path>
                    <path d="M15.8666667,4.4 L11.5777778,0.111111111 C11.5555556,0.0888888889 11.5111111,0.0666666667 11.4888889,0.0444444444 C11.4222222,0.0222222222 11.3777778,0 11.3111111,0 L0.377777778,0 C0.177777778,0 0.0222222222,0.155555556 0.0222222222,0.355555556 L0.0222222222,19.6444444 C0.0222222222,19.8444444 0.177777778,20 0.377777778,20 L15.6222222,20 C15.8222222,20 15.9777778,19.8444444 15.9777778,19.6444444 L15.9777778,4.64444444 C15.9777778,4.55555556 15.9333333,4.46666667 15.8666667,4.4 L15.8666667,4.4 Z M11.6666667,1.2 L14.7555556,4.28888889 L11.6666667,4.28888889 L11.6666667,1.2 L11.6666667,1.2 Z M15.2666667,19.2888889 L0.733333333,19.2888889 L0.733333333,0.711111111 L10.9777778,0.711111111 L10.9777778,4.66666667 C10.9777778,4.86666667 11.1333333,5.02222222 11.3333333,5.02222222 L15.2888889,5.02222222 L15.2888889,19.2888889 L15.2666667,19.2888889 Z" id="Shape" fill="#BDBEBF"></path>
                </g>
                <path d="M11.79241,14.0888889 L10.4590767,14.0888889 C10.2590767,14.0888889 10.1035211,13.9333333 10.1035211,13.7333333 L10.1035211,7.62222222 C10.1035211,7.42222222 10.2590767,7.26666667 10.4590767,7.26666667 L11.79241,7.26666667 C11.99241,7.26666667 12.1479656,7.42222222 12.1479656,7.62222222 L12.1479656,13.7333333 C12.1479656,13.9333333 11.99241,14.0888889 11.79241,14.0888889 L11.79241,14.0888889 Z" id="Shape" fill="#BDBEBF" sketch:type="MSShapeGroup"></path>
                <path d="M8.79241001,14.0888889 L7.45907668,14.0888889 C7.25907668,14.0888889 7.10352112,13.9333333 7.10352112,13.7333333 L7.10352112,9.17777778 C7.10352112,8.97777778 7.25907668,8.82222222 7.45907668,8.82222222 L8.79241001,8.82222222 C8.99241001,8.82222222 9.14796557,8.97777778 9.14796557,9.17777778 L9.14796557,13.7555556 C9.14796557,13.9333333 8.99241001,14.0888889 8.79241001,14.0888889 L8.79241001,14.0888889 Z" id="Shape" fill="#BDBEBF" sketch:type="MSShapeGroup"></path>
                <path d="M5.79241001,14.0888889 L4.45907668,14.0888889 C4.25907668,14.0888889 4.10352112,13.9333333 4.10352112,13.7333333 L4.10352112,10.6888889 C4.10352112,10.4888889 4.25907668,10.3333333 4.45907668,10.3333333 L5.79241001,10.3333333 C5.99241001,10.3333333 6.14796557,10.4888889 6.14796557,10.6888889 L6.14796557,13.7555556 C6.14796557,13.9333333 5.99241001,14.0888889 5.79241001,14.0888889 L5.79241001,14.0888889 Z" id="Shape" fill="#BDBEBF" sketch:type="MSShapeGroup"></path>
            </g>
            <g id="Icon---Report-(Grey)-Hover" sketch:type="MSLayerGroup" transform="translate(32.000000, 234.000000)" fill="#78797C">
                <g id="Group" transform="translate(-0.000000, -0.000000)" sketch:type="MSShapeGroup">
                    <path d="M15.8666667,4.4 L11.5777778,0.111111111 C11.5555556,0.0888888889 11.5111111,0.0666666667 11.4888889,0.0444444444 C11.4222222,0.0222222222 11.3777778,0 11.3111111,0 L0.377777778,0 C0.177777778,0 0.0222222222,0.155555556 0.0222222222,0.355555556 L0.0222222222,19.6444444 C0.0222222222,19.8444444 0.177777778,20 0.377777778,20 L15.6222222,20 C15.8222222,20 15.9777778,19.8444444 15.9777778,19.6444444 L15.9777778,4.64444444 C15.9777778,4.55555556 15.9333333,4.46666667 15.8666667,4.4 L15.8666667,4.4 Z M11.6666667,1.2 L14.7555556,4.28888889 L11.6666667,4.28888889 L11.6666667,1.2 L11.6666667,1.2 Z M15.2666667,19.2888889 L0.733333333,19.2888889 L0.733333333,0.711111111 L10.9777778,0.711111111 L10.9777778,4.66666667 C10.9777778,4.86666667 11.1333333,5.02222222 11.3333333,5.02222222 L15.2888889,5.02222222 L15.2888889,19.2888889 L15.2666667,19.2888889 Z" id="Shape"></path>
                </g>
                <path d="M11.6444444,14.0888889 L10.3111111,14.0888889 C10.1111111,14.0888889 9.95555556,13.9333333 9.95555556,13.7333333 L9.95555556,7.62222222 C9.95555556,7.42222222 10.1111111,7.26666667 10.3111111,7.26666667 L11.6444444,7.26666667 C11.8444444,7.26666667 12,7.42222222 12,7.62222222 L12,13.7333333 C12,13.9333333 11.8444444,14.0888889 11.6444444,14.0888889 L11.6444444,14.0888889 Z" id="Shape" sketch:type="MSShapeGroup"></path>
                <path d="M8.66666667,14.0888889 L7.33333333,14.0888889 C7.13333333,14.0888889 6.97777778,13.9333333 6.97777778,13.7333333 L6.97777778,9.17777778 C6.97777778,8.97777778 7.13333333,8.82222222 7.33333333,8.82222222 L8.66666667,8.82222222 C8.86666667,8.82222222 9.02222222,8.97777778 9.02222222,9.17777778 L9.02222222,13.7555556 C9.02222222,13.9333333 8.86666667,14.0888889 8.66666667,14.0888889 L8.66666667,14.0888889 Z" id="Shape" sketch:type="MSShapeGroup"></path>
                <path d="M5.68888889,14.0888889 L4.35555556,14.0888889 C4.15555556,14.0888889 4,13.9333333 4,13.7333333 L4,10.6888889 C4,10.4888889 4.15555556,10.3333333 4.35555556,10.3333333 L5.68888889,10.3333333 C5.88888889,10.3333333 6.04444444,10.4888889 6.04444444,10.6888889 L6.04444444,13.7555556 C6.04444444,13.9333333 5.88888889,14.0888889 5.68888889,14.0888889 L5.68888889,14.0888889 Z" id="Shape" sketch:type="MSShapeGroup"></path>
            </g>
            <g id="Icon---Chevrons-Close-(Grey)" sketch:type="MSLayerGroup" transform="translate(15.500000, 271.500000) scale(-1, 1) translate(-15.500000, -271.500000) translate(8.000000, 264.000000)" stroke="#BDBEBF" fill="#BDBEBF" stroke-linecap="round" stroke-linejoin="round">
                <path d="M7.48165516,14.8618052 C7.45577338,14.8618052 7.4298916,14.8518973 7.41007586,14.8322838 C7.37064658,14.7928545 7.37064658,14.7287567 7.41007586,14.6893274 L14.6177481,7.48145296 L7.40987366,0.273780738 C7.37044438,0.234351459 7.37044438,0.170253605 7.40987366,0.130824326 C7.44930294,0.091395047 7.51340079,0.091395047 7.55283007,0.130824326 L14.8320816,7.41007586 C14.8715109,7.44950514 14.8715109,7.51360299 14.8320816,7.55303227 L7.55303227,14.8322838 C7.53341873,14.8518973 7.50753695,14.8618052 7.48165516,14.8618052 L7.48165516,14.8618052 Z" id="Shape" sketch:type="MSShapeGroup"></path>
                <path d="M0.202403633,14.8618052 C0.17652185,14.8618052 0.150640066,14.8518973 0.130824326,14.8322838 C0.091395047,14.7928545 0.091395047,14.7287567 0.130824326,14.6893274 L7.33849655,7.48145296 L0.130622125,0.273780738 C0.0911928456,0.234351459 0.0911928456,0.170253605 0.130622125,0.130824326 C0.170051404,0.091395047 0.234149258,0.091395047 0.273578537,0.130824326 L7.55283007,7.41007586 C7.59225935,7.44950514 7.59225935,7.51360299 7.55283007,7.55303227 L0.273780738,14.8322838 C0.254167199,14.8518973 0.228285416,14.8618052 0.202403633,14.8618052 L0.202403633,14.8618052 Z" id="Shape" sketch:type="MSShapeGroup"></path>
            </g>
            <g id="Icon---Chevrons-Open-(Grey)" sketch:type="MSLayerGroup" transform="translate(42.500000, 271.500000) scale(-1, 1) rotate(-180.000000) translate(-42.500000, -271.500000) translate(35.000000, 264.000000)" stroke="#BDBEBF" fill="#BDBEBF" stroke-linecap="round" stroke-linejoin="round">
                <path d="M7.48165516,14.8618052 C7.45577338,14.8618052 7.4298916,14.8518973 7.41007586,14.8322838 C7.37064658,14.7928545 7.37064658,14.7287567 7.41007586,14.6893274 L14.6177481,7.48145296 L7.40987366,0.273780738 C7.37044438,0.234351459 7.37044438,0.170253605 7.40987366,0.130824326 C7.44930294,0.091395047 7.51340079,0.091395047 7.55283007,0.130824326 L14.8320816,7.41007586 C14.8715109,7.44950514 14.8715109,7.51360299 14.8320816,7.55303227 L7.55303227,14.8322838 C7.53341873,14.8518973 7.50753695,14.8618052 7.48165516,14.8618052 L7.48165516,14.8618052 Z" id="Shape" sketch:type="MSShapeGroup"></path>
                <path d="M0.202403633,14.8618052 C0.17652185,14.8618052 0.150640066,14.8518973 0.130824326,14.8322838 C0.091395047,14.7928545 0.091395047,14.7287567 0.130824326,14.6893274 L7.33849655,7.48145296 L0.130622125,0.273780738 C0.0911928456,0.234351459 0.0911928456,0.170253605 0.130622125,0.130824326 C0.170051404,0.091395047 0.234149258,0.091395047 0.273578537,0.130824326 L7.55283007,7.41007586 C7.59225935,7.44950514 7.59225935,7.51360299 7.55283007,7.55303227 L0.273780738,14.8322838 C0.254167199,14.8518973 0.228285416,14.8618052 0.202403633,14.8618052 L0.202403633,14.8618052 Z" id="Shape" sketch:type="MSShapeGroup"></path>
            </g>
            <g id="Icon---Down-(Grey)" sketch:type="MSLayerGroup" transform="translate(13.000000, 289.000000)" stroke-linecap="round" stroke="#BDBEBF" fill="#BDBEBF" stroke-linejoin="round">
                <g sketch:type="MSShapeGroup">
                    <path d="M0.0324637965,0.698923984 L8.0324638,0.698923984 L4.03246376,4.69892398 L0.0324637965,0.698923984 Z" transform="translate(4.032464, 2.698924) scale(-1, 1) translate(-4.032464, -2.698924) "></path>
                </g>
            </g>
            <g id="Icon---Down-Hover-(Grey)" sketch:type="MSLayerGroup" transform="translate(37.000000, 289.000000)" stroke-linecap="round" stroke="#78797C" fill="#78797C" stroke-linejoin="round">
                <g sketch:type="MSShapeGroup">
                    <g>
                        <path d="M0.0324637965,0.698923984 L8.0324638,0.698923984 L4.03246376,4.69892398 L0.0324637965,0.698923984 Z" transform="translate(4.032464, 2.698924) scale(-1, 1) translate(-4.032464, -2.698924) "></path>
                    </g>
                </g>
            </g>
            <g id="Icon---Up-Hover-(Grey)" sketch:type="MSLayerGroup" transform="translate(16.500000, 303.500000) rotate(-180.000000) translate(-16.500000, -303.500000) translate(12.000000, 301.000000)" stroke="#78797C" fill="#78797C" stroke-linecap="round" stroke-linejoin="round">
                <g transform="translate(0.000000, 0.000000)" id="Icon---Down-Hover-(Grey)" sketch:type="MSShapeGroup">
                    <g>
                        <path d="M0.0324637965,0.698923984 L8.0324638,0.698923984 L4.03246376,4.69892398 L0.0324637965,0.698923984 Z" transform="translate(4.032464, 2.698924) scale(-1, 1) translate(-4.032464, -2.698924) "></path>
                    </g>
                </g>
            </g>
            <g id="Icon---Up-(Grey)" sketch:type="MSLayerGroup" transform="translate(40.500000, 303.500000) rotate(-180.000000) translate(-40.500000, -303.500000) translate(36.000000, 301.000000)" stroke-linecap="round" stroke="#BDBEBF" fill="#BDBEBF" stroke-linejoin="round">
                <g transform="translate(0.000000, 0.000000)" sketch:type="MSShapeGroup">
                    <path d="M0.0324637965,0.698923984 L8.0324638,0.698923984 L4.03246376,4.69892398 L0.0324637965,0.698923984 Z" transform="translate(4.032464, 2.698924) scale(-1, 1) translate(-4.032464, -2.698924) "></path>
                </g>
            </g>
            <g id="Icon---Back-(Grey)" sketch:type="MSLayerGroup" transform="translate(16.500000, 331.500000) rotate(-270.000000) translate(-16.500000, -331.500000) translate(12.000000, 329.000000)" stroke-linecap="round" stroke="#BDBEBF" fill="#BDBEBF" stroke-linejoin="round">
                <g transform="translate(-0.000000, -0.000000)" sketch:type="MSShapeGroup">
                    <path d="M0.0324637965,0.698923984 L8.0324638,0.698923984 L4.03246376,4.69892398 L0.0324637965,0.698923984 Z" transform="translate(4.032464, 2.698924) scale(-1, 1) translate(-4.032464, -2.698924) "></path>
                </g>
            </g>
            <g id="Icon---Forward-Hover-(Grey)" sketch:type="MSLayerGroup" transform="translate(17.500000, 316.500000) rotate(-270.000000) translate(-17.500000, -316.500000) translate(13.000000, 314.000000)" stroke-linecap="round" stroke="#78797C" fill="#78797C" stroke-linejoin="round">
                <g transform="translate(4.500000, 2.500000) rotate(-180.000000) translate(-4.500000, -2.500000) translate(0.000000, 0.000000)" sketch:type="MSShapeGroup">
                    <g transform="translate(0.000000, 0.000000)">
                        <path d="M0.0324637965,0.698923984 L8.0324638,0.698923984 L4.03246376,4.69892398 L0.0324637965,0.698923984 Z" transform="translate(4.032464, 2.698924) scale(-1, 1) translate(-4.032464, -2.698924) "></path>
                    </g>
                </g>
            </g>
            <g id="Icon---Forward-(Grey)" sketch:type="MSLayerGroup" transform="translate(42.500000, 316.500000) rotate(-90.000000) translate(-42.500000, -316.500000) translate(38.000000, 314.000000)" stroke-linecap="round" stroke="#BDBEBF" fill="#BDBEBF" stroke-linejoin="round">
                <g transform="translate(0.000000, -0.000000)" sketch:type="MSShapeGroup">
                    <path d="M0.0324637965,0.698923984 L8.0324638,0.698923984 L4.03246376,4.69892398 L0.0324637965,0.698923984 Z" transform="translate(4.032464, 2.698924) scale(-1, 1) translate(-4.032464, -2.698924) "></path>
                </g>
            </g>
            <g id="Icon---Back-Hover-(Grey)" sketch:type="MSLayerGroup" transform="translate(41.500000, 331.500000) rotate(-270.000000) translate(-41.500000, -331.500000) translate(37.000000, 329.000000)" stroke-linecap="round" stroke="#78797C" fill="#78797C" stroke-linejoin="round">
                <g transform="translate(-0.000000, 0.000000)" sketch:type="MSShapeGroup">
                    <g>
                        <path d="M0.0324637965,0.698923984 L8.0324638,0.698923984 L4.03246376,4.69892398 L0.0324637965,0.698923984 Z" transform="translate(4.032464, 2.698924) scale(-1, 1) translate(-4.032464, -2.698924) "></path>
                    </g>
                </g>
            </g>
            <g id="Icon---Global-Search" sketch:type="MSLayerGroup" transform="translate(40.000000, 346.000000)" stroke="#333333" stroke-width="2" fill="#333333">
                <path d="M10.0396531,0 C7.4691929,0 4.89909035,0.951627007 2.93333918,2.84515637 C-0.977779726,6.64193974 -0.977779726,12.7983413 2.93333918,16.595472 C6.71321728,20.2467329 12.7606646,20.3728061 16.7018223,16.974039 L24.5437284,24.5776777 C24.6549433,24.6846489 24.8462616,24.6846489 24.9471061,24.5874023 C25.0579634,24.4905031 25.0579634,24.29601 24.957119,24.1991107 L17.1052,16.595472 C17.115213,16.5857474 17.115213,16.5857474 17.1255835,16.5857474 C21.0367024,12.788964 21.0467153,6.64228705 17.1355964,2.84515637 C15.1798581,0.951627007 12.6097556,0 10.0396531,0 L10.0396531,0 L10.0396531,0 Z M10.0396531,0.543886093 C12.4588466,0.543886093 14.8876954,1.43716517 16.7322187,3.23379528 C20.4316358,6.81698354 20.4316358,12.6142675 16.7322187,16.1974557 C13.0331592,19.780644 7.04614694,19.780644 3.34672982,16.1974557 C-0.352687302,12.6142675 -0.352687302,6.81698354 3.34672982,3.23379528 C5.19125312,1.43716517 7.62045955,0.543886093 10.0396531,0.543886093 L10.0396531,0.543886093 L10.0396531,0.543886093 Z" id="Shape" sketch:type="MSShapeGroup"></path>
            </g>
            <g id="Icon---Global-Search-Hover" sketch:type="MSLayerGroup" transform="translate(7.000000, 346.000000)" stroke="#78797C" stroke-width="2" fill="#333333">
                <path d="M10.0396531,0 C7.4691929,0 4.89909035,0.951627007 2.93333918,2.84515637 C-0.977779726,6.64193974 -0.977779726,12.7983413 2.93333918,16.595472 C6.71321728,20.2467329 12.7606646,20.3728061 16.7018223,16.974039 L24.5437284,24.5776777 C24.6549433,24.6846489 24.8462616,24.6846489 24.9471061,24.5874023 C25.0579634,24.4905031 25.0579634,24.29601 24.957119,24.1991107 L17.1052,16.595472 C17.115213,16.5857474 17.115213,16.5857474 17.1255835,16.5857474 C21.0367024,12.788964 21.0467153,6.64228705 17.1355964,2.84515637 C15.1798581,0.951627007 12.6097556,0 10.0396531,0 L10.0396531,0 L10.0396531,0 Z M10.0396531,0.543886093 C12.4588466,0.543886093 14.8876954,1.43716517 16.7322187,3.23379528 C20.4316358,6.81698354 20.4316358,12.6142675 16.7322187,16.1974557 C13.0331592,19.780644 7.04614694,19.780644 3.34672982,16.1974557 C-0.352687302,12.6142675 -0.352687302,6.81698354 3.34672982,3.23379528 C5.19125312,1.43716517 7.62045955,0.543886093 10.0396531,0.543886093 L10.0396531,0.543886093 L10.0396531,0.543886093 Z" id="Shape" sketch:type="MSShapeGroup"></path>
            </g>
            <g id="Icon---Global-Search-Close" sketch:type="MSLayerGroup" transform="translate(40.000000, 385.000000)" stroke="#333333" fill="#333333">
                <path d="M13.6045898,12.4999023 L24.7709961,1.33349609 C25.0760742,1.02841797 25.0760742,0.533886719 24.7709961,0.228808594 C24.4663086,-0.0762695313 23.9709961,-0.0762695313 23.6663086,0.228808594 L12.4999023,11.3952148 L1.33349609,0.228808594 C1.02880859,-0.0762695313 0.533496094,-0.0762695313 0.228808594,0.228808594 C-0.0762695312,0.533886719 -0.0762695312,1.02841797 0.228808594,1.33349609 L11.3952148,12.4999023 L0.228808594,23.6663086 C-0.0762695312,23.9713867 -0.0762695312,24.465918 0.228808594,24.7709961 C0.381152344,24.9237305 0.581152344,24.9999023 0.781152344,24.9999023 C0.981152344,24.9999023 1.18115234,24.9237305 1.33349609,24.7709961 L12.4999023,13.6045898 L23.6663086,24.7709961 C23.8186523,24.9237305 24.0186523,24.9999023 24.2186523,24.9999023 C24.4186523,24.9999023 24.6186523,24.9237305 24.7709961,24.7709961 C25.0760742,24.465918 25.0760742,23.9713867 24.7709961,23.6663086 L13.6045898,12.4999023 L13.6045898,12.4999023 Z" id="Shape" sketch:type="MSShapeGroup"></path>
            </g>
            <g id="Icon---Global-Search-Close" sketch:type="MSLayerGroup" transform="translate(7.000000, 385.000000)" stroke="#78797C" fill="#78797C">
                <path d="M13.6045898,12.4999023 L24.7709961,1.33349609 C25.0760742,1.02841797 25.0760742,0.533886719 24.7709961,0.228808594 C24.4663086,-0.0762695313 23.9709961,-0.0762695313 23.6663086,0.228808594 L12.4999023,11.3952148 L1.33349609,0.228808594 C1.02880859,-0.0762695313 0.533496094,-0.0762695313 0.228808594,0.228808594 C-0.0762695312,0.533886719 -0.0762695312,1.02841797 0.228808594,1.33349609 L11.3952148,12.4999023 L0.228808594,23.6663086 C-0.0762695312,23.9713867 -0.0762695312,24.465918 0.228808594,24.7709961 C0.381152344,24.9237305 0.581152344,24.9999023 0.781152344,24.9999023 C0.981152344,24.9999023 1.18115234,24.9237305 1.33349609,24.7709961 L12.4999023,13.6045898 L23.6663086,24.7709961 C23.8186523,24.9237305 24.0186523,24.9999023 24.2186523,24.9999023 C24.4186523,24.9999023 24.6186523,24.9237305 24.7709961,24.7709961 C25.0760742,24.465918 25.0760742,23.9713867 24.7709961,23.6663086 L13.6045898,12.4999023 L13.6045898,12.4999023 Z" id="Shape" sketch:type="MSShapeGroup"></path>
            </g>
            <g id="Icon---Dashboard-(Light)" sketch:type="MSLayerGroup" transform="translate(5.000000, 136.000000)">
                <path d="M10.7424429,25 L0.25,18.7436046 L0.257557064,6.2441607 L10.7564775,0 L21.25,6.25639543 L21.2424429,18.7569516 L10.7424429,25 Z" id="hexagon" fill="#BEBEBE" sketch:type="MSShapeGroup"></path>
                <g id="Page-1" transform="translate(3.750000, 7.500000)">
                    <g id="Group-3" transform="translate(5.454545, 3.636364)">
                        <mask id="mask-14" sketch:name="Clip 2" fill="white">
                            <use xlink:href="#path-13"></use>
                        </mask>
                        <g id="Clip-2"></g>
                        <path d="M-3.93545455,-4.30181818 L9.66454545,-4.30181818 L9.66454545,8.77363636 L-3.93545455,8.77363636 L-3.93545455,-4.30181818 Z" id="Fill-1" fill="#FFFFFF" sketch:type="MSShapeGroup" mask="url(#mask-14)"></path>
                    </g>
                    <g id="Group-6" transform="translate(5.454545, 4.545455)">
                        <mask id="mask-16" sketch:name="Clip 5" fill="white">
                            <use xlink:href="#path-15"></use>
                        </mask>
                        <g id="Clip-5"></g>
                        <path d="M-4.35,-3.73636364 L7.57090909,-3.73636364 L7.57090909,8.28363636 L-4.35,8.28363636 L-4.35,-3.73636364 Z" id="Fill-4" fill="#FFFFFF" sketch:type="MSShapeGroup" mask="url(#mask-16)"></path>
                    </g>
                    <path d="M0.257272727,6.72645455 C0.257272727,3.25736364 3.30727273,0.372818182 7.06454545,0.372818182 C10.8227273,0.372818182 13.8727273,3.07827273 13.8727273,6.71463636 L9.71909091,6.71463636 L9.71909091,6.71827273 C9.71909091,8.18372727 8.53090909,9.37281818 7.06454545,9.37281818 C5.59909091,9.37281818 4.41,8.18372727 4.41,6.71827273 L0.257272727,6.72645455 L0.257272727,6.72645455 Z" id="Stroke-7" stroke="#FFFFFF" stroke-width="0.75" stroke-linecap="round" stroke-linejoin="round" sketch:type="MSShapeGroup"></path>
                </g>
            </g>
            <g id="Icon---Segments-(Light)" sketch:type="MSLayerGroup" transform="translate(5.000000, 109.000000)">
                <path d="M20.9924429,18.7569516 L10.4924429,25 L0,18.7436046 L0.00755706354,6.2441607 L10.5064775,0 L21,6.25639543 L20.9924429,18.7569516 L20.9924429,18.7569516 Z" id="hexagon-copy-2" fill="#BEBEBE" sketch:type="MSShapeGroup"></path>
                <g id="Segments" transform="translate(5.500000, 7.500000)" fill="#FFFFFF" sketch:type="MSShapeGroup">
                    <path d="M5.28044235,0.128253504 L5.28044235,4.10397181 L9.25625838,4.10397181 C9.25625838,1.90831212 7.47629748,0.128253504 5.28044235,0.128253504 L5.28044235,0.128253504 Z M4.25336166,1.13899947 C2.05750653,1.13899947 0.277545634,2.91905809 0.277545634,5.11471778 C0.277545634,7.31037747 2.05750653,9.09063152 4.25336166,9.09063152 C6.44921679,9.09063152 8.22917769,7.31037747 8.22917769,5.11471778 L4.25336166,5.11471778 L4.25336166,1.13899947 L4.25336166,1.13899947 Z" id="Shape"></path>
                </g>
            </g>
            <g id="Icon---Reports-(Light)" sketch:type="MSLayerGroup" transform="translate(4.000000, 81.000000)">
                <path d="M10.7072079,25.8332053 L0.21379152,19.5773913 L0.221315704,7.07739131 L10.7213157,0.833205264 L21.2137915,7.08998821 L21.2062673,19.5899882 L10.7072079,25.8332053 Z" id="hexagon" fill="#BEBEBE" sketch:type="MSShapeGroup"></path>
                <g id="Page-1" transform="translate(7.278506, 8.333205)" sketch:type="MSShapeGroup">
                    <g id="Group-5" stroke="#FFFFFF" stroke-width="0.75" stroke-linecap="round" stroke-linejoin="round">
                        <path d="M7.46827115,9.12835925 L0.0397052935,9.12835925 L0.0397052935,0.00446623586 L5.28277302,0.00446623586 L5.28166149,2.1624417 L7.46827115,2.16377374 L7.46827115,9.12835925 L7.46827115,9.12835925 Z" id="Stroke-1"></path>
                        <path d="M5.28276508,0.00446623586 L7.46953352,2.16259841" id="Stroke-3"></path>
                    </g>
                    <path d="M2.59366632,6.20195615 L1.86442593,6.20195615 L1.86442593,4.56637357 L2.59366632,4.56637357 L2.59366632,6.20195615 Z" id="Fill-6" fill="#FFFFFF"></path>
                    <path d="M4.0538144,6.20195615 L3.324574,6.20195615 L3.324574,3.81361694 L4.0538144,3.81361694 L4.0538144,6.20195615 Z" id="Fill-7" fill="#FFFFFF"></path>
                    <path d="M5.42234098,6.20195615 L4.69310058,6.20195615 L4.69310058,3.12707029 L5.42234098,3.12707029 L5.42234098,6.20195615 Z" id="Fill-8" fill="#FFFFFF"></path>
                </g>
            </g>
            <g id="Icon---Move" sketch:type="MSLayerGroup" transform="translate(12.000000, 420.000000)" fill="#BDBEBF">
                <path d="M7.67878676,0.164448529 C8.41444853,0.900220588 9.16224265,1.64801471 9.91356618,2.39933824 C10.0525368,2.53830882 9.95426471,2.77599265 9.75772059,2.77599265 L8.67970588,2.77599265 C8.55783088,2.77599265 8.45911765,2.87481618 8.45911765,2.99658088 L8.45911765,5.39944853 C8.45911765,5.52132353 8.36029412,5.62003676 8.23852941,5.62003676 L6.79621324,5.62003676 C6.67444853,5.62003676 6.575625,5.52132353 6.575625,5.39944853 L6.575625,3.00628676 C6.575625,2.88452206 6.47691176,2.78569853 6.35514706,2.78569853 L5.274375,2.78569853 C5.07772059,2.78569853 4.97955882,2.54768382 5.11875,2.40882353 L7.36720588,0.164889706 C7.45389706,0.0784191176 7.59275735,0.0783088235 7.67878676,0.164448529" id="Fill-1" sketch:type="MSShapeGroup"></path>
                <path d="M2.76088235,5.29852941 L2.76088235,6.36264706 C2.76088235,6.48452206 2.85959559,6.58323529 2.98147059,6.58323529 L5.379375,6.58323529 C5.50113971,6.58323529 5.59996324,6.68205882 5.59996324,6.80382353 L5.59996324,8.25143382 C5.59996324,8.37330882 5.50113971,8.47202206 5.379375,8.47202206 L2.99040441,8.47202206 C2.86852941,8.47202206 2.76981618,8.57084559 2.76981618,8.69261029 L2.76981618,9.76080882 C2.76981618,9.95735294 2.53213235,10.0557353 2.39316176,9.91676471 C1.64448529,9.16797794 0.896029412,8.41952206 0.158382353,7.68176471 C0.0722426471,7.595625 0.0720220588,7.45698529 0.158051471,7.37084559 C0.889632353,6.63860294 1.63665441,5.89091912 2.38422794,5.14257353 C2.52319853,5.00360294 2.76088235,5.10198529 2.76088235,5.29852941" id="Fill-2" sketch:type="MSShapeGroup"></path>
                <path d="M12.6311029,5.11367647 C13.3936765,5.87636029 14.1443382,6.62735294 14.8865074,7.36974265 C14.9726471,7.45588235 14.9726471,7.59496324 14.8865074,7.68110294 C14.1429044,8.424375 13.3921324,9.17492647 12.6392647,9.92746324 C12.5002941,10.0664338 12.2626103,9.96816176 12.2626103,9.77161765 L12.2626103,8.69801471 C12.2626103,8.57625 12.1637868,8.47742647 12.0420221,8.47742647 L9.64797794,8.47742647 C9.52610294,8.47742647 9.42738971,8.37871324 9.42738971,8.25683824 L9.42738971,6.81452206 C9.42738971,6.69264706 9.52610294,6.59393382 9.64797794,6.59393382 L12.0335294,6.59393382 C12.1552941,6.59393382 12.2540074,6.49511029 12.2540074,6.37334559 L12.2540074,5.26908088 C12.2540074,5.07253676 12.4921324,4.97459559 12.6311029,5.11367647" id="Fill-3" sketch:type="MSShapeGroup"></path>
                <path d="M6.57055147,12.0694853 L6.57055147,9.66529412 C6.57055147,9.54341912 6.66926471,9.44459559 6.79113971,9.44459559 L8.22827206,9.44459559 C8.35014706,9.44459559 8.44886029,9.54341912 8.44886029,9.66529412 L8.44886029,12.0555882 C8.44886029,12.1774632 8.54768382,12.2761765 8.66944853,12.2761765 L9.74371324,12.2761765 C9.94025735,12.2761765 10.0386397,12.5138603 9.89966912,12.6528309 C9.14988971,13.4025 8.40033088,14.1521691 7.65738971,14.895 C7.57125,14.98125 7.43238971,14.9813603 7.34625,14.8952206 C6.61422794,14.1629779 5.86775735,13.4160662 5.11863971,12.6666176 C4.97966912,12.5276471 5.07805147,12.2900735 5.27448529,12.2900735 L6.34996324,12.2900735 C6.47172794,12.2900735 6.57055147,12.19125 6.57055147,12.0694853" id="Fill-4" sketch:type="MSShapeGroup"></path>
            </g>
            <g id="Icon---Move-Hover" sketch:type="MSLayerGroup" transform="translate(40.000000, 419.000000)" fill="#78797C">
                <path d="M7.67878676,0.164448529 C8.41444853,0.900220588 9.16224265,1.64801471 9.91356618,2.39933824 C10.0525368,2.53830882 9.95426471,2.77599265 9.75772059,2.77599265 L8.67970588,2.77599265 C8.55783088,2.77599265 8.45911765,2.87481618 8.45911765,2.99658088 L8.45911765,5.39944853 C8.45911765,5.52132353 8.36029412,5.62003676 8.23852941,5.62003676 L6.79621324,5.62003676 C6.67444853,5.62003676 6.575625,5.52132353 6.575625,5.39944853 L6.575625,3.00628676 C6.575625,2.88452206 6.47691176,2.78569853 6.35514706,2.78569853 L5.274375,2.78569853 C5.07772059,2.78569853 4.97955882,2.54768382 5.11875,2.40882353 L7.36720588,0.164889706 C7.45389706,0.0784191176 7.59275735,0.0783088235 7.67878676,0.164448529" id="Fill-1" sketch:type="MSShapeGroup"></path>
                <path d="M2.76088235,5.29852941 L2.76088235,6.36264706 C2.76088235,6.48452206 2.85959559,6.58323529 2.98147059,6.58323529 L5.379375,6.58323529 C5.50113971,6.58323529 5.59996324,6.68205882 5.59996324,6.80382353 L5.59996324,8.25143382 C5.59996324,8.37330882 5.50113971,8.47202206 5.379375,8.47202206 L2.99040441,8.47202206 C2.86852941,8.47202206 2.76981618,8.57084559 2.76981618,8.69261029 L2.76981618,9.76080882 C2.76981618,9.95735294 2.53213235,10.0557353 2.39316176,9.91676471 C1.64448529,9.16797794 0.896029412,8.41952206 0.158382353,7.68176471 C0.0722426471,7.595625 0.0720220588,7.45698529 0.158051471,7.37084559 C0.889632353,6.63860294 1.63665441,5.89091912 2.38422794,5.14257353 C2.52319853,5.00360294 2.76088235,5.10198529 2.76088235,5.29852941" id="Fill-2" sketch:type="MSShapeGroup"></path>
                <path d="M12.6311029,5.11367647 C13.3936765,5.87636029 14.1443382,6.62735294 14.8865074,7.36974265 C14.9726471,7.45588235 14.9726471,7.59496324 14.8865074,7.68110294 C14.1429044,8.424375 13.3921324,9.17492647 12.6392647,9.92746324 C12.5002941,10.0664338 12.2626103,9.96816176 12.2626103,9.77161765 L12.2626103,8.69801471 C12.2626103,8.57625 12.1637868,8.47742647 12.0420221,8.47742647 L9.64797794,8.47742647 C9.52610294,8.47742647 9.42738971,8.37871324 9.42738971,8.25683824 L9.42738971,6.81452206 C9.42738971,6.69264706 9.52610294,6.59393382 9.64797794,6.59393382 L12.0335294,6.59393382 C12.1552941,6.59393382 12.2540074,6.49511029 12.2540074,6.37334559 L12.2540074,5.26908088 C12.2540074,5.07253676 12.4921324,4.97459559 12.6311029,5.11367647" id="Fill-3" sketch:type="MSShapeGroup"></path>
                <path d="M6.57055147,12.0694853 L6.57055147,9.66529412 C6.57055147,9.54341912 6.66926471,9.44459559 6.79113971,9.44459559 L8.22827206,9.44459559 C8.35014706,9.44459559 8.44886029,9.54341912 8.44886029,9.66529412 L8.44886029,12.0555882 C8.44886029,12.1774632 8.54768382,12.2761765 8.66944853,12.2761765 L9.74371324,12.2761765 C9.94025735,12.2761765 10.0386397,12.5138603 9.89966912,12.6528309 C9.14988971,13.4025 8.40033088,14.1521691 7.65738971,14.895 C7.57125,14.98125 7.43238971,14.9813603 7.34625,14.8952206 C6.61422794,14.1629779 5.86775735,13.4160662 5.11863971,12.6666176 C4.97966912,12.5276471 5.07805147,12.2900735 5.27448529,12.2900735 L6.34996324,12.2900735 C6.47172794,12.2900735 6.57055147,12.19125 6.57055147,12.0694853" id="Fill-4" sketch:type="MSShapeGroup"></path>
            </g>
            <g id="Icon---Chevrons-Close-(White)" sketch:type="MSLayerGroup" transform="translate(19.500000, 449.500000) scale(-1, 1) translate(-19.500000, -449.500000) translate(12.000000, 442.000000)" stroke="#FFFFFF" fill="#FFFFFF" stroke-linecap="round" stroke-linejoin="round">
                <path d="M7.48165516,14.8618052 C7.45577338,14.8618052 7.4298916,14.8518973 7.41007586,14.8322838 C7.37064658,14.7928545 7.37064658,14.7287567 7.41007586,14.6893274 L14.6177481,7.48145296 L7.40987366,0.273780738 C7.37044438,0.234351459 7.37044438,0.170253605 7.40987366,0.130824326 C7.44930294,0.091395047 7.51340079,0.091395047 7.55283007,0.130824326 L14.8320816,7.41007586 C14.8715109,7.44950514 14.8715109,7.51360299 14.8320816,7.55303227 L7.55303227,14.8322838 C7.53341873,14.8518973 7.50753695,14.8618052 7.48165516,14.8618052 L7.48165516,14.8618052 Z" id="Shape" sketch:type="MSShapeGroup"></path>
                <path d="M0.202403633,14.8618052 C0.17652185,14.8618052 0.150640066,14.8518973 0.130824326,14.8322838 C0.091395047,14.7928545 0.091395047,14.7287567 0.130824326,14.6893274 L7.33849655,7.48145296 L0.130622125,0.273780738 C0.0911928456,0.234351459 0.0911928456,0.170253605 0.130622125,0.130824326 C0.170051404,0.091395047 0.234149258,0.091395047 0.273578537,0.130824326 L7.55283007,7.41007586 C7.59225935,7.44950514 7.59225935,7.51360299 7.55283007,7.55303227 L0.273780738,14.8322838 C0.254167199,14.8518973 0.228285416,14.8618052 0.202403633,14.8618052 L0.202403633,14.8618052 Z" id="Shape" sketch:type="MSShapeGroup"></path>
            </g>
            <g id="Icon---Chevrons-Expand-(White)" sketch:type="MSLayerGroup" transform="translate(48.500000, 448.500000) scale(-1, 1) rotate(-180.000000) translate(-48.500000, -448.500000) translate(41.000000, 441.000000)" stroke="#FFFFFF" fill="#FFFFFF" stroke-linecap="round" stroke-linejoin="round">
                <path d="M7.48165516,14.8618052 C7.45577338,14.8618052 7.4298916,14.8518973 7.41007586,14.8322838 C7.37064658,14.7928545 7.37064658,14.7287567 7.41007586,14.6893274 L14.6177481,7.48145296 L7.40987366,0.273780738 C7.37044438,0.234351459 7.37044438,0.170253605 7.40987366,0.130824326 C7.44930294,0.091395047 7.51340079,0.091395047 7.55283007,0.130824326 L14.8320816,7.41007586 C14.8715109,7.44950514 14.8715109,7.51360299 14.8320816,7.55303227 L7.55303227,14.8322838 C7.53341873,14.8518973 7.50753695,14.8618052 7.48165516,14.8618052 L7.48165516,14.8618052 Z" id="Shape" sketch:type="MSShapeGroup"></path>
                <path d="M0.202403633,14.8618052 C0.17652185,14.8618052 0.150640066,14.8518973 0.130824326,14.8322838 C0.091395047,14.7928545 0.091395047,14.7287567 0.130824326,14.6893274 L7.33849655,7.48145296 L0.130622125,0.273780738 C0.0911928456,0.234351459 0.0911928456,0.170253605 0.130622125,0.130824326 C0.170051404,0.091395047 0.234149258,0.091395047 0.273578537,0.130824326 L7.55283007,7.41007586 C7.59225935,7.44950514 7.59225935,7.51360299 7.55283007,7.55303227 L0.273780738,14.8322838 C0.254167199,14.8518973 0.228285416,14.8618052 0.202403633,14.8618052 L0.202403633,14.8618052 Z" id="Shape" sketch:type="MSShapeGroup"></path>
            </g>
            <g id="Icon---Down-(White)" sketch:type="MSLayerGroup" transform="translate(52.000000, 289.000000)" stroke-linecap="round" stroke="#FFFFFF" fill="#FFFFFF" stroke-linejoin="round">
                <g sketch:type="MSShapeGroup">
                    <path d="M0.0324637965,0.698923984 L8.0324638,0.698923984 L4.03246376,4.69892398 L0.0324637965,0.698923984 Z" transform="translate(4.032464, 2.698924) scale(-1, 1) translate(-4.032464, -2.698924) "></path>
                </g>
            </g>
            <g id="Icon---Up-(White)" sketch:type="MSLayerGroup" transform="translate(53.000000, 301.000000)" stroke-linecap="round" stroke="#FFFFFF" fill="#FFFFFF" stroke-linejoin="round">
                <g transform="translate(4.500000, 2.500000) rotate(-180.000000) translate(-4.500000, -2.500000) " sketch:type="MSShapeGroup">
                    <path d="M0.0324637965,0.698923984 L8.0324638,0.698923984 L4.03246376,4.69892398 L0.0324637965,0.698923984 Z" transform="translate(4.032464, 2.698924) scale(-1, 1) translate(-4.032464, -2.698924) "></path>
                </g>
            </g>
            <g id="Icon---Forward-(White)" sketch:type="MSLayerGroup" transform="translate(55.500000, 316.500000) rotate(-90.000000) translate(-55.500000, -316.500000) translate(51.000000, 314.000000)" stroke-linecap="round" stroke="#FFFFFF" fill="#FFFFFF" stroke-linejoin="round">
                <g transform="translate(-0.000000, 0.000000)" sketch:type="MSShapeGroup">
                    <path d="M0.0324637965,0.698923984 L8.0324638,0.698923984 L4.03246376,4.69892398 L0.0324637965,0.698923984 Z" transform="translate(4.032464, 2.698924) scale(-1, 1) translate(-4.032464, -2.698924) "></path>
                </g>
            </g>
            <g id="Icon---Back-(White)" sketch:type="MSLayerGroup" transform="translate(57.500000, 331.500000) rotate(-270.000000) translate(-57.500000, -331.500000) translate(53.000000, 329.000000)" stroke-linecap="round" stroke="#FFFFFF" fill="#FFFFFF" stroke-linejoin="round">
                <g transform="translate(-0.000000, 0.000000)" sketch:type="MSShapeGroup">
                    <path d="M0.0324637965,0.698923984 L8.0324638,0.698923984 L4.03246376,4.69892398 L0.0324637965,0.698923984 Z" transform="translate(4.032464, 2.698924) scale(-1, 1) translate(-4.032464, -2.698924) "></path>
                </g>
            </g>
            <g id="Icon---Report-(White)" sketch:type="MSLayerGroup" transform="translate(56.000000, 234.000000)">
                <g id="Group" transform="translate(-0.000000, -0.000000)" sketch:type="MSShapeGroup">
                    <path id="Shape" fill="#000000" d="M11.4666667,0.0444444444 C11.4916667,0.0777777778 11.5416667,0.111111111 11.5666667,0.144444444 C11.5416667,0.111111111 11.5166667,0.0444444444 11.4666667,0.0444444444 L11.4666667,0.0444444444 Z"></path>
                    <path d="M15.8666667,4.4 L11.5777778,0.111111111 C11.5555556,0.0888888889 11.5111111,0.0666666667 11.4888889,0.0444444444 C11.4222222,0.0222222222 11.3777778,0 11.3111111,0 L0.377777778,0 C0.177777778,0 0.0222222222,0.155555556 0.0222222222,0.355555556 L0.0222222222,19.6444444 C0.0222222222,19.8444444 0.177777778,20 0.377777778,20 L15.6222222,20 C15.8222222,20 15.9777778,19.8444444 15.9777778,19.6444444 L15.9777778,4.64444444 C15.9777778,4.55555556 15.9333333,4.46666667 15.8666667,4.4 L15.8666667,4.4 Z M11.6666667,1.2 L14.7555556,4.28888889 L11.6666667,4.28888889 L11.6666667,1.2 L11.6666667,1.2 Z M15.2666667,19.2888889 L0.733333333,19.2888889 L0.733333333,0.711111111 L10.9777778,0.711111111 L10.9777778,4.66666667 C10.9777778,4.86666667 11.1333333,5.02222222 11.3333333,5.02222222 L15.2888889,5.02222222 L15.2888889,19.2888889 L15.2666667,19.2888889 Z" id="Shape" fill="#FFFFFF"></path>
                </g>
                <path d="M11.6444444,14.0888889 L10.3111111,14.0888889 C10.1111111,14.0888889 9.95555556,13.9333333 9.95555556,13.7333333 L9.95555556,7.62222222 C9.95555556,7.42222222 10.1111111,7.26666667 10.3111111,7.26666667 L11.6444444,7.26666667 C11.8444444,7.26666667 12,7.42222222 12,7.62222222 L12,13.7333333 C12,13.9333333 11.8444444,14.0888889 11.6444444,14.0888889 L11.6444444,14.0888889 Z" id="Shape" fill="#FFFFFF" sketch:type="MSShapeGroup"></path>
                <path d="M8.66666667,14.0888889 L7.33333333,14.0888889 C7.13333333,14.0888889 6.97777778,13.9333333 6.97777778,13.7333333 L6.97777778,9.17777778 C6.97777778,8.97777778 7.13333333,8.82222222 7.33333333,8.82222222 L8.66666667,8.82222222 C8.86666667,8.82222222 9.02222222,8.97777778 9.02222222,9.17777778 L9.02222222,13.7555556 C9.02222222,13.9333333 8.86666667,14.0888889 8.66666667,14.0888889 L8.66666667,14.0888889 Z" id="Shape" fill="#FFFFFF" sketch:type="MSShapeGroup"></path>
                <path d="M5.68888889,14.0888889 L4.35555556,14.0888889 C4.15555556,14.0888889 4,13.9333333 4,13.7333333 L4,10.6888889 C4,10.4888889 4.15555556,10.3333333 4.35555556,10.3333333 L5.68888889,10.3333333 C5.88888889,10.3333333 6.04444444,10.4888889 6.04444444,10.6888889 L6.04444444,13.7555556 C6.04444444,13.9333333 5.88888889,14.0888889 5.68888889,14.0888889 L5.68888889,14.0888889 Z" id="Shape" fill="#FFFFFF" sketch:type="MSShapeGroup"></path>
            </g>
        </g>
    </g>
</svg>
