<?xml version="1.0" encoding="UTF-8" standalone="no"?>
<svg width="70px" height="13px" viewBox="0 0 70 13" version="1.1" xmlns="http://www.w3.org/2000/svg" xmlns:xlink="http://www.w3.org/1999/xlink" xmlns:sketch="http://www.bohemiancoding.com/sketch/ns">
    <!-- Generator: Sketch 3.4.1 (15681) - http://www.bohemiancoding.com/sketch -->
    <title>Icon - Menu</title>
    <desc>Created with Sketch.</desc>
    <defs></defs>
    <g id="Style-Guide" stroke="none" stroke-width="1" fill="none" fill-rule="evenodd" sketch:type="MSPage">
        <g id="Icon---Menu" sketch:type="MSArtboardGroup" transform="translate(-1.000000, -1.000000)" fill="#333333">
            <g sketch:type="MSLayerGroup" transform="translate(1.000000, -4.000000)">
                <text id="MENU" sketch:type="MSTextLayer" font-family="CHOpenSans, 'Noto Sans', sans-serif" font-size="16" font-weight="100">
                    <tspan x="24" y="17">MENU</tspan>
                </text>
                <g id="Hamburger" transform="translate(0.000000, 6.500000)" sketch:type="MSShapeGroup">
                    <path d="M1.00164722,8.00048005 C0.701117292,7.99471831 0.421579418,8.20876691 0.270074121,8.56066246 C0.118568824,8.91255801 0.118568824,9.34778131 0.270074121,9.69967686 C0.421579418,10.0515724 0.701117292,10.265621 1.00164722,10.2598593 L19.0311611,10.2598593 C19.331691,10.265621 19.6112289,10.0515724 19.7627342,9.69967686 C19.9142395,9.34778131 19.9142395,8.91255801 19.7627342,8.56066246 C19.6112289,8.20876691 19.331691,7.99471831 19.0311611,8.00048005 L1.00164722,8.00048005 L1.00164722,8.00048005 Z" id="Shape"></path>
                    <path d="M1.00164722,4.00048005 C0.701117292,3.99471831 0.421579418,4.20876691 0.270074121,4.56066246 C0.118568824,4.91255801 0.118568824,5.34778131 0.270074121,5.69967686 C0.421579418,6.05157241 0.701117292,6.26562101 1.00164722,6.25985926 L19.0311611,6.25985926 C19.331691,6.26562101 19.6112289,6.05157241 19.7627342,5.69967686 C19.9142395,5.34778131 19.9142395,4.91255801 19.7627342,4.56066246 C19.6112289,4.20876691 19.331691,3.99471831 19.0311611,4.00048005 L1.00164722,4.00048005 L1.00164722,4.00048005 Z" id="Shape"></path>
                    <path d="M1.00164722,0.000480054765 C0.701117292,-0.00528168932 0.421579418,0.20876691 0.270074121,0.560662459 C0.118568824,0.912558007 0.118568824,1.34778131 0.270074121,1.69967686 C0.421579418,2.05157241 0.701117292,2.26562101 1.00164722,2.25985926 L19.0311611,2.25985926 C19.331691,2.26562101 19.6112289,2.05157241 19.7627342,1.69967686 C19.9142395,1.34778131 19.9142395,0.912558007 19.7627342,0.560662459 C19.6112289,0.20876691 19.331691,-0.00528168932 19.0311611,0.000480054765 L1.00164722,0.000480054765 L1.00164722,0.000480054765 Z" id="Shape"></path>
                </g>
            </g>
        </g>
    </g>
</svg>
